<?xml version="1.0" encoding="utf-8"?>
<!-- Generator: Adobe Illustrator 17.0.0, SVG Export Plug-In . SVG Version: 6.00 Build 0)  -->
<!DOCTYPE svg PUBLIC "-//W3C//DTD SVG 1.1//EN" "http://www.w3.org/Graphics/SVG/1.1/DTD/svg11.dtd">
<svg version="1.1" id="Layer_1" xmlns="http://www.w3.org/2000/svg" xmlns:xlink="http://www.w3.org/1999/xlink" x="0px" y="0px"
	 width="1133.86px" height="1133.86px" viewBox="0 0 1133.86 1133.86" enable-background="new 0 0 1133.86 1133.86"
	 xml:space="preserve">
<path fill="#41B649" stroke="#000000" stroke-width="3" stroke-miterlimit="10" d="M599.484,731.54v-118
	c0.051-1.383-3.971-99.43,130.748-116.813l-162.874,39.304l-162.874-33.303c128,14.667,119.41,112.222,119.41,112.222l0.521,116.59
	H599.484z"/>
<path fill="#204924" stroke="#000000" stroke-width="2.4291" stroke-miterlimit="10" d="M455.95,493.779
	c34.414-25.834,13.42-82.305,13.42-82.305l-6.951,19.36c5.774-8.703-17.012-42.842-17.012-42.842l-10.131,24.403
	c4.202-9.378-21.487-33.749-21.487-33.749s-6.617,17.544-8.692,15.707c-25.266-22.36-29.444-14.582-29.444-14.582
	s-0.216,16.236,6.011,32.536l-19.37,3.957c0,0,10.228,26.637,21.314,29.662c11.698,3.192-22.95,7.516-22.95,7.516
	s17.07,22.969,36.084,25.08l-18.89,8.488C377.852,487.01,417.172,522.89,455.95,493.779z"/>
<path fill="#368F43" stroke="#000000" stroke-width="2.4291" stroke-miterlimit="10" d="M497.701,447.292
	c46.313-9.919,51.417-76.034,51.417-76.034l-15.886,16.133c9.788-6.029,2.788-50.659,2.788-50.659l-21.391,19.703
	c8.529-7.429-5.882-43.642-5.882-43.642s-14.712,14.473-15.938,11.679c-14.918-34.007-22.684-28.166-22.684-28.166
	s-7.713,16.122-9.019,35.283l-21.18-4.992c0,0-2.082,31.337,7.597,39.479c10.213,8.591-26.401-3.089-26.401-3.089
	s6.448,30.831,24.47,41.721l-22.793-0.244C422.799,404.464,445.514,458.469,497.701,447.292z"/>
<ellipse fill="#41B649" stroke="#000000" stroke-width="4.0436" stroke-miterlimit="10" cx="567.358" cy="474.28" rx="28.305" ry="46.277"/>
<path fill="#204924" stroke="#000000" stroke-width="2.4291" stroke-miterlimit="10" d="M683.968,487.686
	c-34.414-25.834-13.42-82.305-13.42-82.305l6.951,19.36c-5.774-8.703,17.012-42.842,17.012-42.842l10.131,24.403
	c-4.202-9.378,21.487-33.749,21.487-33.749s6.617,17.544,8.692,15.707c25.266-22.36,29.444-14.582,29.444-14.582
	s0.216,16.236-6.011,32.536l19.37,3.957c0,0-10.228,26.637-21.314,29.662c-11.698,3.192,22.95,7.516,22.95,7.516
	s-17.07,22.969-36.084,25.08l18.89,8.488C762.066,480.917,722.746,516.796,683.968,487.686z"/>
<path fill="#368F43" stroke="#000000" stroke-width="2.4291" stroke-miterlimit="10" d="M635.55,447.512
	c46.797,7.304,74.213-47.61,74.213-47.61l-19.605,4.382c11.297-2.128,20.725-46.31,20.725-46.31l-27.024,10.748
	c10.622-3.887,10.118-42.858,10.118-42.858s-18.916,8.252-19.061,5.205c-1.766-37.093-11.107-34.417-11.107-34.417
	s-12.97,12.296-21.043,29.722l-17.993-12.238c0,0-13.154,28.518-7.028,39.584c6.464,11.676-23.549-12.328-23.549-12.328
	s-5.008,31.097,7.927,47.714l-21.198-8.381C580.924,380.724,582.818,439.281,635.55,447.512z"/>
<path fill="#41B649" stroke="#000000" stroke-width="3" stroke-miterlimit="10" d="M568.734,419.697
	c58.459-2.006,80.016-70.278,80.016-70.278l-23.815,5.165c13.209-5.205,14.386-60.985,14.386-60.985l-30.284,19.311
	c11.982-7.181,2.322-54.335,2.322-54.335s-21.029,14.402-21.912,10.739c-10.755-44.583-21.464-39.168-21.464-39.168
	s-12.877,17.927-18.624,40.938l-24.667-10.667c0,0-9.333,37.646,0.667,49.646c10.552,12.662-31.427-9.486-31.427-9.486
	s1.147,38.883,20.694,56.035l-27.658-5.244C486.966,351.368,502.86,421.957,568.734,419.697z"/>
</svg>
